<svg width="24" height="24" viewBox="0 0 24 24" fill="none" xmlns="http://www.w3.org/2000/svg" role="img" aria-label="AI Brain">
  <title>AI Brain</title>
  <desc>Stylized brain icon with circuit patterns representing artificial intelligence</desc>
  <!-- Simplified brain outline -->
  <path d="M9.5 3a5.5 5.5 0 0 1 5.4 4.5h.6a4.5 4.5 0 0 1 0 9H9a6 6 0 0 1-5.9-5.2A5.5 5.5 0 0 1 9.5 3z" stroke="currentColor" stroke-width="2" stroke-linecap="round" stroke-linejoin="round" fill="none"/>
  <path d="M13.5 12.5a2.5 2.5 0 0 1-3 2.4 2.5 2.5 0 0 1-2.4-3 2.5 2.5 0 0 1 3-2.4 2.5 2.5 0 0 1 2.4 3z" stroke="currentColor" stroke-width="2" stroke-linecap="round" stroke-linejoin="round" fill="none"/>
  <!-- Circuit pattern overlay -->
  <g opacity="0.6">
    <circle cx="12" cy="8" r="1" fill="currentColor"/>
    <circle cx="9" cy="11" r="1" fill="currentColor"/>
    <circle cx="15" cy="11" r="1" fill="currentColor"/>
    <line x1="12" y1="8" x2="9" y2="11" stroke="currentColor" stroke-width="1" opacity="0.4"/>
    <line x1="12" y1="8" x2="15" y2="11" stroke="currentColor" stroke-width="1" opacity="0.4"/>
  </g>
</svg>